<?xml version="1.0" encoding="UTF-8"?> <!-- Generator: Adobe Illustrator 24.2.0, SVG Export Plug-In . SVG Version: 6.00 Build 0) --> <svg xmlns="http://www.w3.org/2000/svg" xmlns:xlink="http://www.w3.org/1999/xlink" version="1.1" id="Layer_1" x="0px" y="0px" viewBox="0 0 200 200" style="enable-background:new 0 0 200 200;" xml:space="preserve"> <style type="text/css"> .st0{fill:none;} .st1{fill:none;stroke:#FFFFFF;stroke-width:3;} .st2{fill:#FFFFFF;} </style> <g id="Ellipse_3"> <circle class="st0" cx="99.7" cy="99.74" r="99.74"></circle> <circle class="st1" cx="99.7" cy="99.74" r="97.61"></circle> </g> <g> <g> <g> <path class="st2" d="M102.93,68.95c1.61-1.46,3.56-3.74,3.56-6.23c0-0.52-0.25-1.01-0.67-1.31c-0.43-0.31-0.97-0.39-1.46-0.22 L100,62.62l-4.35-1.45c-0.5-0.16-1.04-0.08-1.46,0.22c-0.42,0.3-0.67,0.79-0.67,1.31c0,2.48,1.93,4.75,3.56,6.23 c-29.16,16.37-29.5,38.22-29.5,39.17c0,0.9,0.73,1.62,1.62,1.62h61.61c0.9,0,1.62-0.73,1.62-1.62 C132.43,107.16,132.08,85.24,102.93,68.95z"></path> <path class="st2" d="M127.56,112.97H72.44c-0.9,0-1.62,0.73-1.62,1.62v17.83c0,3.58,2.91,6.49,6.49,6.49h35.67h9.73 c3.58,0,6.49-2.91,6.49-6.49v-17.83C129.18,113.69,128.46,112.97,127.56,112.97z M109.73,135.67H90.27v-9.73 c0-5.36,4.36-9.73,9.73-9.73s9.73,4.36,9.73,9.73V135.67z"></path> </g> </g> </g> </svg> 