<?xml version="1.0" encoding="UTF-8"?> <!-- Generator: Adobe Illustrator 24.2.0, SVG Export Plug-In . SVG Version: 6.00 Build 0) --> <svg xmlns="http://www.w3.org/2000/svg" xmlns:xlink="http://www.w3.org/1999/xlink" version="1.1" id="Layer_1" x="0px" y="0px" viewBox="0 0 200 200" style="enable-background:new 0 0 200 200;" xml:space="preserve"> <style type="text/css"> .st0{fill:none;} .st1{fill:none;stroke:#FFFFFF;stroke-width:3;} .st2{fill:#FFFFFF;} </style> <g> <g id="Ellipse_1"> <circle class="st0" cx="100" cy="100" r="100"></circle> <circle class="st1" cx="100" cy="100" r="97.86"></circle> </g> <g id="smartphone" transform="translate(46.38 46.488)"> <path id="Path_22" class="st2" d="M68.61,68.85c-1.04,1.04-2.38,1.73-3.83,1.96v7.89c0,1.54-1.25,2.79-2.8,2.8H33.99 c-1.54,0-2.79-1.25-2.8-2.8V28.32c0-1.54,1.25-2.79,2.8-2.8h1.4c1.54,0,2.79,1.25,2.8,2.8c0,1.54,1.25,2.79,2.8,2.8h14.05 c1.37-0.04,2.51-1.05,2.71-2.41c0.02-0.13,0.03-0.26,0.03-0.39c0-1.54,1.25-2.79,2.8-2.8h1.4c0.08,0,0.17,0.01,0.25,0.03 c1.85-1.16,3.8-2.17,5.82-3c-1.57-1.68-3.77-2.64-6.07-2.63H33.99c-4.63,0.02-8.38,3.77-8.4,8.4V78.7c0.02,4.63,3.77,8.38,8.4,8.4 h27.99c4.63-0.02,8.38-3.77,8.4-8.4v-11.9C69.84,67.53,69.25,68.22,68.61,68.85z"></path> <path id="Path_23" class="st2" d="M81.16,25.93c-0.27-0.26-0.64-0.41-1.02-0.41C72.23,25.66,63,30.29,57.15,37 c-6.34,0.23-11.63,2.14-14.93,5.44c-0.55,0.55-0.55,1.43,0,1.98c0.18,0.18,0.41,0.31,0.66,0.37l5.96,1.43l-0.04,0.04 c-0.5,0.55-0.48,1.4,0.05,1.93l10.07,10.07c0.53,0.52,1.37,0.55,1.93,0.05l0.04-0.04l1.43,5.96c0.12,0.49,0.49,0.88,0.98,1.02 c0.12,0.04,0.25,0.05,0.38,0.05c0.37,0,0.73-0.15,0.99-0.41c3.3-3.3,5.21-8.59,5.44-14.94c6.71-5.88,11.32-15.1,11.47-23 C81.58,26.57,81.43,26.2,81.16,25.93L81.16,25.93z"></path> <path id="Path_24" class="st2" d="M44.39,54.48c-1.88,1.88-4.29,9.68-4.74,11.22c-0.22,0.74,0.2,1.52,0.93,1.74 c0.13,0.04,0.27,0.06,0.41,0.06c0.14,0,0.27-0.02,0.4-0.06c1.55-0.46,9.34-2.86,11.22-4.74c2.27-2.27,2.27-5.95,0-8.22 C50.34,52.21,46.66,52.21,44.39,54.48z"></path> </g> </g> </svg> 