<?xml version="1.0" encoding="UTF-8"?> <!-- Generator: Adobe Illustrator 24.2.0, SVG Export Plug-In . SVG Version: 6.00 Build 0) --> <svg xmlns="http://www.w3.org/2000/svg" xmlns:xlink="http://www.w3.org/1999/xlink" version="1.1" id="Layer_1" x="0px" y="0px" viewBox="0 0 200 200" style="enable-background:new 0 0 200 200;" xml:space="preserve"> <style type="text/css"> .st0{fill:none;} .st1{fill:none;stroke:#FFFFFF;stroke-width:3;} .st2{fill:#FFFFFF;} </style> <g id="Ellipse_3"> <circle class="st0" cx="99.7" cy="99.74" r="99.74"></circle> <circle class="st1" cx="99.7" cy="99.74" r="97.61"></circle> </g> <g> <path class="st2" d="M130.11,80.83c2.9-0.59,5.64-2,7.82-4.19c1.3-1.3,1.29-3.4,0-4.7c-1.3-1.3-3.41-1.3-4.7,0 c-2.76,2.76-7.07,3.36-10.49,1.45c-13.35-7.44-30.04-5.59-41.45,4.35l-8.26-8.26l7.89-1.39c0.51-0.09,0.88-0.52,0.9-1.03 c0.02-0.51-0.32-0.97-0.82-1.1l-18.54-4.84c-0.38-0.1-0.78,0.01-1.05,0.28c-0.28,0.27-0.39,0.68-0.29,1.05L65.98,81 c0.13,0.5,0.59,0.84,1.1,0.82c0.52-0.02,0.94-0.4,1.03-0.9l1.39-7.89l8.26,8.26c-9.94,11.42-11.8,28.1-4.36,41.45 c1.91,3.42,1.31,7.74-1.46,10.5l0,0c-1.3,1.3-1.3,3.4,0,4.7c0.65,0.65,1.5,0.97,2.35,0.97s1.7-0.32,2.35-0.97 c2.19-2.19,3.6-4.94,4.19-7.84c0.03-0.03,0.05-0.04,0.08-0.06l22.8-22.8l8.22,8.22l-2.72,8.17c-0.13,0.39-0.03,0.83,0.26,1.12 l2.97,2.97c0.27,0.27,0.66,0.38,1.03,0.29c0.37-0.09,0.67-0.36,0.79-0.72l2.38-7.13l2.35,2.35l-2.72,8.17 c-0.13,0.39-0.03,0.83,0.26,1.12l2.97,2.97c0.27,0.27,0.66,0.38,1.03,0.29c0.37-0.09,0.66-0.36,0.79-0.72l2.38-7.13l2.94,2.94 c0.49,0.49,1.12,0.73,1.76,0.73c0.64,0,1.28-0.24,1.76-0.73c0.97-0.97,0.97-2.55,0-3.52l-2.93-2.93l7.11-2.37 c0.36-0.12,0.63-0.42,0.72-0.79c0.09-0.37-0.02-0.76-0.29-1.02l-2.97-2.97c-0.29-0.29-0.73-0.39-1.12-0.26l-8.14,2.72l-2.35-2.35 l7.11-2.37c0.36-0.12,0.63-0.42,0.72-0.79c0.09-0.37-0.02-0.76-0.29-1.03l-2.97-2.97c-0.29-0.29-0.73-0.4-1.12-0.26l-8.15,2.71 l-8.23-8.23L130.11,80.83z M119.5,79.21c0.63,0.35,1.28,0.64,1.93,0.9L102.53,99L85.99,82.46C95.3,74.6,108.73,73.21,119.5,79.21z M80.1,121.44c-0.25-0.66-0.55-1.31-0.9-1.94c-6-10.77-4.6-24.2,3.25-33.51l16.55,16.55L80.1,121.44z"></path> </g> </svg> 