<?xml version="1.0" encoding="UTF-8"?> <!-- Generator: Adobe Illustrator 24.2.0, SVG Export Plug-In . SVG Version: 6.00 Build 0) --> <svg xmlns="http://www.w3.org/2000/svg" xmlns:xlink="http://www.w3.org/1999/xlink" version="1.1" id="Layer_1" x="0px" y="0px" viewBox="0 0 300 36.19" style="enable-background:new 0 0 300 36.19;" xml:space="preserve"> <style type="text/css"> .st0{fill:#00BED6;} .st1{fill:#3F738D;} </style> <g> <g> <path class="st0" d="M82.26,35.65V15.73l-8.73,19.92h-3.25l-8.66-19.92v19.92h-3.5V10.07h4.8l9.02,20.82l9.09-20.82h4.73v25.58 H82.26z"></path> <path class="st0" d="M105.64,30.7c-0.97,3.07-3.75,5.48-7.79,5.48c-4.65,0-8.73-3.39-8.73-9.27c0-5.45,3.93-9.16,8.3-9.16 c5.34,0,8.33,3.68,8.33,9.09c0,0.43-0.04,0.87-0.07,1.08H92.62c0.07,3.1,2.31,5.27,5.23,5.27c2.81,0,4.22-1.55,4.87-3.5 L105.64,30.7z M102.21,25.18c-0.07-2.49-1.7-4.44-4.76-4.44c-2.85,0-4.58,2.2-4.73,4.44H102.21z"></path> <path class="st0" d="M122.71,33.01c-0.83,1.66-2.67,3.1-5.38,3.1c-5.09,0-8.23-4.04-8.23-9.2c0-4.91,3.32-9.09,8.23-9.09 c3.07,0,4.73,1.52,5.3,2.92V10.07h3.36v22.37c0,1.66,0.14,2.92,0.18,3.21h-3.28c-0.07-0.4-0.18-1.3-0.18-2.35V33.01z M117.65,33.12c3.1,0,5.02-2.71,5.02-6.28c0-3.57-1.88-6.03-4.98-6.03c-3.1,0-5.12,2.53-5.12,6.1 C112.57,30.49,114.41,33.12,117.65,33.12z"></path> <path class="st0" d="M131.18,10.07c1.37,0,2.45,1.08,2.45,2.45c0,1.34-1.08,2.42-2.45,2.42c-1.34,0-2.42-1.08-2.42-2.42 C128.77,11.15,129.85,10.07,131.18,10.07z"></path> <rect x="129.52" y="18.29" class="st0" width="3.36" height="17.35"></rect> <path class="st0" d="M141.5,25.72l4.69-0.69c1.05-0.14,1.34-0.69,1.34-1.3c0-1.7-1.12-3.1-3.75-3.1c-2.38,0-3.72,1.48-3.93,3.5 l-3.25-0.76c0.36-3.32,3.36-5.63,7.11-5.63c5.2,0,7.22,2.96,7.22,6.35v8.7c0,1.52,0.14,2.42,0.22,2.85h-3.32 c-0.07-0.43-0.18-1.08-0.18-2.35c-0.76,1.23-2.49,2.89-5.59,2.89c-3.54,0-5.81-2.45-5.81-5.2 C136.24,27.89,138.51,26.16,141.5,25.72z M147.53,28.21v-0.79l-5.3,0.79c-1.44,0.22-2.53,1.05-2.53,2.6c0,1.3,1.08,2.53,2.81,2.53 C145.29,33.34,147.53,32,147.53,28.21z"></path> </g> <g> <path class="st1" d="M164.23,14.79v20.85h-5.02V14.79h-8.08v-4.73h21.18v4.73H164.23z"></path> <path class="st1" d="M189.56,30.56c-0.9,3.07-3.72,5.63-8.08,5.63c-4.87,0-9.16-3.5-9.16-9.49c0-5.66,4.19-9.34,8.73-9.34 c5.48,0,8.77,3.5,8.77,9.2c0,0.69-0.07,1.41-0.07,1.48h-12.7c0.11,2.35,2.09,4.04,4.47,4.04c2.24,0,3.46-1.12,4.04-2.71 L189.56,30.56z M185.09,24.75c-0.07-1.77-1.23-3.5-3.97-3.5c-2.49,0-3.86,1.88-3.97,3.5H185.09z"></path> <path class="st1" d="M197.97,26.77c0,3.21,2.09,5.02,4.55,5.02c2.45,0,3.68-1.62,4.08-2.99l4.22,1.41 c-0.79,2.96-3.57,5.99-8.3,5.99c-5.23,0-9.34-3.97-9.34-9.42c0-5.48,4.04-9.42,9.2-9.42c4.83,0,7.58,2.99,8.33,5.99l-4.29,1.44 c-0.43-1.48-1.55-2.99-3.93-2.99C200.02,21.79,197.97,23.56,197.97,26.77z"></path> <path class="st1" d="M218.97,35.65h-4.8V10.07h4.8v9.31c1.15-1.37,3.1-1.95,4.8-1.95c4.51,0,6.6,3.14,6.6,7.04v11.18h-4.8V25.29 c0-1.98-0.97-3.54-3.28-3.54c-2.02,0-3.21,1.52-3.32,3.46V35.65z"></path> <path class="st1" d="M237.01,29.33c1.84,0,3.32,1.48,3.32,3.28c0,1.8-1.48,3.28-3.32,3.28c-1.8,0-3.28-1.48-3.28-3.28 C233.72,30.81,235.2,29.33,237.01,29.33z"></path> </g> <g> <polygon class="st0" points="257.68,10.07 257.68,21 257.28,21 254.69,21 247.22,21 247.22,21 247.22,10.07 243.68,10.07 243.68,35.65 247.22,35.65 247.22,24.28 247.22,24.28 254.69,24.28 257.28,24.28 257.68,24.28 257.68,35.65 261.21,35.65 261.21,10.07 "></polygon> <path class="st0" d="M271.06,36.19c-4.04,0-6.49-3.03-6.49-6.96V18.29h3.39v10.43c0,2.38,1.08,4.47,3.93,4.47 c2.74,0,4.11-1.8,4.11-4.44V18.29h3.39v14.14c0,1.37,0.11,2.6,0.18,3.21h-3.25c-0.07-0.4-0.14-1.37-0.14-2.09 C275.25,35.36,273.08,36.19,271.06,36.19z"></path> <path class="st0" d="M282.93,35.65V10.07h3.36v10.68c0.83-1.55,2.85-2.96,5.74-2.96c5.27,0,7.97,4.04,7.97,9.09 c0,5.16-2.92,9.24-8.08,9.24c-2.56,0-4.55-1.12-5.63-2.99v2.53H282.93z M291.41,20.78c-2.99,0-5.16,2.35-5.16,6.1 c0,3.75,2.16,6.21,5.16,6.21c3.1,0,5.12-2.45,5.12-6.21C296.54,23.13,294.55,20.78,291.41,20.78z"></path> </g> <g> <polygon class="st1" points="36.55,10.07 30.67,10.07 35.09,2.4 30.93,0 25.12,10.07 22.35,14.86 36.55,14.86 36.55,30.85 4.8,30.85 4.8,14.86 19,14.86 16.22,10.07 10.41,0 6.26,2.4 10.68,10.07 4.8,10.07 0,10.07 0,14.86 0,30.85 0,30.85 0,35.65 0,35.65 0,35.65 4.8,35.65 4.8,35.65 36.55,35.65 36.55,35.65 41.35,35.65 41.35,14.86 41.35,10.07 "></polygon> <polygon class="st1" points="54.77,14.86 54.77,30.85 45.66,26.85 44.7,26.43 44.7,19.28 45.66,18.86 "></polygon> </g> </g> </svg> 