<?xml version="1.0" encoding="UTF-8"?> <!-- Generator: Adobe Illustrator 24.2.0, SVG Export Plug-In . SVG Version: 6.00 Build 0) --> <svg xmlns="http://www.w3.org/2000/svg" xmlns:xlink="http://www.w3.org/1999/xlink" version="1.1" id="Layer_1" x="0px" y="0px" viewBox="0 0 200 200" style="enable-background:new 0 0 200 200;" xml:space="preserve"> <style type="text/css"> .st0{fill:none;} .st1{fill:none;stroke:#FFFFFF;stroke-width:3;} .st2{fill:#FFFFFF;} </style> <g> <g id="Ellipse_2"> <circle class="st0" cx="100" cy="100" r="100"></circle> <circle class="st1" cx="100" cy="100" r="97.86"></circle> </g> <g id="usb" transform="translate(-54.25 46)"> <path id="Path_25" class="st2" d="M171.49,19.71h-33.06v20.03h33.06V19.71z M150.71,33.84h-5.92v-4h5.92V33.84z M165.12,33.84 h-5.92v-4h5.92V33.84z"></path> <path id="Path_26" class="st2" d="M135.68,43.74v24.89c0.22,10.65,9.04,19.1,19.69,18.87c10.33-0.22,18.66-8.54,18.88-18.87V43.74 H135.68z M154.96,79.43c-5.96,0-10.79-4.83-10.79-10.79l0,0h21.58C165.75,74.59,160.92,79.42,154.96,79.43L154.96,79.43z"></path> </g> </g> </svg> 