<?xml version="1.0" encoding="UTF-8"?> <!-- Generator: Adobe Illustrator 24.2.0, SVG Export Plug-In . SVG Version: 6.00 Build 0) --> <svg xmlns="http://www.w3.org/2000/svg" xmlns:xlink="http://www.w3.org/1999/xlink" version="1.1" id="Layer_1" x="0px" y="0px" viewBox="0 0 200 200" style="enable-background:new 0 0 200 200;" xml:space="preserve"> <style type="text/css"> .st0{fill:none;} .st1{fill:none;stroke:#FFFFFF;stroke-width:3;} .st2{fill:#FFFFFF;} </style> <g id="Ellipse_3"> <circle class="st0" cx="99.7" cy="99.74" r="99.74"></circle> <circle class="st1" cx="99.7" cy="99.74" r="97.61"></circle> </g> <g> <g> <path class="st2" d="M138.44,136.14l-19.74-19.74c2.36-4.96,4.01-10.5,4.01-16.4c0-5.9-1.65-11.44-4.01-16.4l6.3-6.3h4.19 c0.56,0,1.08-0.29,1.37-0.76l8.11-12.97c0.4-0.64,0.31-1.47-0.23-2c-0.54-0.54-1.36-0.62-2.01-0.23l-12.97,8.11 c-0.47,0.29-0.76,0.82-0.76,1.37l0,4.19l-5.56,5.56c-6.23-11.15-15.54-18.67-16.13-19.13c-0.59-0.47-1.42-0.47-2.01,0 c-0.59,0.46-9.9,7.98-16.13,19.13l-5.56-5.57v-4.19c0-0.56-0.29-1.08-0.76-1.37l-12.97-8.11c-0.64-0.4-1.47-0.31-2.01,0.23 c-0.53,0.54-0.63,1.36-0.23,2l8.11,12.97c0.3,0.47,0.82,0.76,1.37,0.76h4.19l6.3,6.3c-2.36,4.96-4.01,10.5-4.01,16.4 c0,5.9,1.65,11.43,4.01,16.39l-19.74,19.75c-0.63,0.63-0.63,1.66,0,2.29c0.32,0.32,0.73,0.47,1.15,0.47s0.83-0.16,1.15-0.47 l19.01-19.01c6.23,11.15,15.54,18.67,16.13,19.14c0.29,0.23,0.65,0.35,1.01,0.35c0.36,0,0.71-0.12,1.01-0.35 c0.59-0.46,9.9-7.98,16.13-19.13l19.01,19.01c0.32,0.32,0.73,0.47,1.15,0.47s0.83-0.16,1.15-0.47 C139.07,137.8,139.07,136.78,138.44,136.14z M93.99,79.4l4.86-4.86c0.63-0.63,1.66-0.63,2.29,0l4.86,4.86 c0.63,0.63,0.63,1.66,0,2.29l-4.86,4.86c-0.32,0.32-0.73,0.47-1.15,0.47c-0.41,0-0.83-0.16-1.15-0.47l-4.86-4.86 C93.36,81.06,93.36,80.03,93.99,79.4z M106.01,120.6l-4.86,4.86c-0.32,0.32-0.73,0.47-1.15,0.47c-0.41,0-0.83-0.16-1.15-0.47 l-4.86-4.86c-0.63-0.63-0.63-1.66,0-2.29l4.86-4.86c0.63-0.63,1.66-0.63,2.29,0l4.86,4.86 C106.64,118.94,106.64,119.97,106.01,120.6z M109.25,101.15l-8.11,8.11c-0.32,0.32-0.73,0.47-1.15,0.47 c-0.41,0-0.83-0.16-1.15-0.47l-8.11-8.11c-0.63-0.63-0.63-1.66,0-2.29l8.11-8.11c0.63-0.63,1.66-0.63,2.29,0l8.11,8.11 C109.89,99.49,109.89,100.51,109.25,101.15z"></path> </g> </g> </svg> 